<?xml version="1.0" encoding="UTF-8"?>
<svg xmlns="http://www.w3.org/2000/svg" viewBox="0 0 400 520" width="400" height="520">
  <defs>
    <linearGradient id="ng-amy" x1="50%" y1="0%" x2="50%" y2="100%">
      <stop offset="0%" stop-color="#22d3ee"/>
      <stop offset="60%" stop-color="#a78bfa"/>
      <stop offset="100%" stop-color="#e879f9"/>
    </linearGradient>
    <filter id="glow-amy" x="-100%" y="-100%" width="300%" height="300%">
      <feGaussianBlur stdDeviation="11" result="b"/>
      <feMerge><feMergeNode in="b"/><feMergeNode in="SourceGraphic"/></feMerge>
    </filter>
    <pattern id="grid-amy" width="18" height="18" patternUnits="userSpaceOnUse">
      <path d="M18 0H0V18" fill="none" stroke="#ffffff" stroke-opacity="0.04" stroke-width="0.5"/>
    </pattern>
  </defs>
  <rect width="400" height="520" fill="#030308"/>
  <rect width="400" height="520" fill="url(#grid-amy)"/>
  <path d="M 72 268 C 68 198 86 102 168 76 C 258 58 342 118 362 202 C 372 252 364 308 352 348 C 362 392 342 442 298 472 C 228 502 148 492 98 448 C 58 408 48 348 54 292 C 56 278 62 268 72 268 Z"
        fill="#262a38" stroke="#4a5168" stroke-width="1.35"/>
  <path d="M 288 388 C 328 392 348 418 338 448 C 328 472 288 478 268 458 C 252 432 268 398 288 388 Z"
        fill="#1f232f" stroke="#3d4458" stroke-width="0.9"/>
  <g stroke="#151a26" stroke-width="0.85" fill="none" opacity="0.9">
    <path d="M 118 108 Q 175 125 225 168"/>
    <path d="M 98 198 Q 195 175 288 205"/>
    <path d="M 88 278 Q 195 248 312 278"/>
    <path d="M 118 358 Q 215 328 292 358"/>
    <path d="M 155 135 Q 210 195 245 265"/>
  </g>
  <g stroke="#64748b" stroke-width="0.65" fill="none" opacity="0.16">
    <path d="M 95 145 L 175 125 L 235 195 L 165 275 L 105 210 Z"/>
    <path d="M 205 155 L 305 175 L 315 285 L 245 385 L 175 295 Z"/>
    <path d="M 140 320 L 220 300 L 280 360 L 220 420 L 150 380 Z"/>
  </g>
  <!-- Amygdala: compact inferior-anterior -->
  <path d="M 128 298 C 142 278 168 272 188 285 C 208 298 212 328 198 352 C 182 378 148 382 128 362 C 108 342 108 318 128 298 Z"
        fill="url(#ng-amy)" fill-opacity="0.94" stroke="#67e8f9" stroke-width="2" filter="url(#glow-amy)"/>
</svg>
